<svg xmlns="http://www.w3.org/2000/svg" width="1200" height="630" viewBox="0 0 1200 630" role="img" aria-labelledby="title desc">
  <title id="title">AI-Assisted Market Intelligence</title>
  <desc id="desc">Navy and soft blue Open Graph preview for the AI Market Intelligence portfolio.</desc>
  <rect width="1200" height="630" fill="#f4f8ff"/>
  <circle cx="1020" cy="90" r="260" fill="#dcecff"/>
  <circle cx="120" cy="560" r="220" fill="#eaf3ff"/>
  <rect x="70" y="70" width="1060" height="490" rx="42" fill="#ffffff" stroke="#e3e9f2"/>
  <rect x="108" y="108" width="54" height="54" rx="16" fill="#071b3a"/>
  <text x="135" y="142" text-anchor="middle" font-family="Inter, Arial, sans-serif" font-size="18" font-weight="800" fill="#ffffff">AI</text>
  <text x="184" y="140" font-family="Inter, Arial, sans-serif" font-size="24" font-weight="800" fill="#071b3a">Market Intelligence</text>
  <text x="108" y="238" font-family="Inter, Arial, sans-serif" font-size="76" font-weight="900" fill="#071b3a">AI-Assisted</text>
  <text x="108" y="326" font-family="Inter, Arial, sans-serif" font-size="76" font-weight="900" fill="#071b3a">Market Intelligence</text>
  <text x="108" y="388" font-family="Inter, Arial, sans-serif" font-size="28" font-weight="600" fill="#5f6c7c">Competitor research, consumer insight, packaging analysis,</text>
  <text x="108" y="426" font-family="Inter, Arial, sans-serif" font-size="28" font-weight="600" fill="#5f6c7c">and product opportunity mapping for consumer brands.</text>
  <g transform="translate(775 178)">
    <rect width="270" height="64" rx="18" fill="#071b3a"/>
    <text x="28" y="41" font-family="Inter, Arial, sans-serif" font-size="20" font-weight="800" fill="#ffffff">Competitors</text>
    <rect y="84" width="270" height="64" rx="18" fill="#0e2a52"/>
    <text x="28" y="125" font-family="Inter, Arial, sans-serif" font-size="20" font-weight="800" fill="#ffffff">Claims</text>
    <rect y="168" width="270" height="64" rx="18" fill="#2d6cdf"/>
    <text x="28" y="209" font-family="Inter, Arial, sans-serif" font-size="20" font-weight="800" fill="#ffffff">Packaging</text>
  </g>
  <rect x="108" y="480" width="218" height="48" rx="24" fill="#071b3a"/>
  <text x="217" y="511" text-anchor="middle" font-family="Inter, Arial, sans-serif" font-size="17" font-weight="850" fill="#ffffff">Evidence-driven</text>
  <rect x="344" y="480" width="250" height="48" rx="24" fill="#dcecff"/>
  <text x="469" y="511" text-anchor="middle" font-family="Inter, Arial, sans-serif" font-size="17" font-weight="850" fill="#071b3a">Thailand focus</text>
</svg>
